<svg width="18" height="18" viewBox="0 0 18 18" fill="none" xmlns="http://www.w3.org/2000/svg">
<g clip-path="url(#clip0_15_64)">
<path d="M18 0H0V18H18V0Z" fill="url(#paint0_linear_15_64)"/>
<path d="M7.95937 8.63438C7.95937 8.63438 8.97187 8.55 8.97187 7.36875C8.97187 6.1875 8.15625 5.625 7.11562 5.625H3.65625V12.2625H7.11562C7.11562 12.2625 9.225 12.3187 9.225 10.2937C9.19687 10.2937 9.30937 8.63438 7.95937 8.63438ZM5.175 6.80625H7.11562C7.11562 6.80625 7.59375 6.80625 7.59375 7.50938C7.59375 8.2125 7.3125 8.29688 7.00312 8.29688H5.20312V6.80625H5.175ZM7.00312 11.0531H5.175V9.28125H7.11562C7.11562 9.28125 7.81875 9.28125 7.81875 10.1813C7.79062 10.9688 7.28437 11.0531 7.00312 11.0531Z" fill="#F1F2F2"/>
<path d="M13.3313 6.01874H10.6031V6.83436H13.3313V6.01874Z" fill="#F1F2F2"/>
<path d="M12.0094 7.3125C9.44998 7.3125 9.44998 9.87187 9.44998 9.87187C9.44998 9.87187 9.28123 12.4031 12.0094 12.4031C12.0094 12.4031 14.2875 12.5437 14.2875 10.6312H13.1062C13.1062 10.6312 13.1344 11.3344 12.0375 11.3344C12.0375 11.3344 10.8562 11.4188 10.8562 10.1813H14.2875C14.3156 10.1813 14.7094 7.3125 12.0094 7.3125ZM10.8844 9.28125C10.8844 9.28125 11.025 8.26875 12.0375 8.26875C13.05 8.26875 13.05 9.28125 13.05 9.28125H10.8844Z" fill="#F1F2F2"/>
</g>
<defs>
<linearGradient id="paint0_linear_15_64" x1="0.684591" y1="17.182" x2="18.2159" y2="-0.0680064" gradientUnits="userSpaceOnUse">
<stop offset="0.2887" stop-color="#3F56FF"/>
<stop offset="1" stop-color="#3FA1FF"/>
</linearGradient>
<clipPath id="clip0_15_64">
<rect width="18" height="18" fill="white"/>
</clipPath>
</defs>
</svg>
