<svg width="18" height="15" viewBox="0 0 18 15" fill="none" xmlns="http://www.w3.org/2000/svg">
<g clip-path="url(#clip0_15_50)">
<path d="M4.57517 5.96715C4.81327 6.75798 5.1015 7.49973 5.41479 8.21525C5.95365 9.49678 6.31707 10.1746 6.81947 11.0157C7.43352 12.0199 8.11137 13.1633 9.22669 13.904C10.0412 14.4437 11.0324 14.7199 11.9848 14.7199C13.3268 14.7199 14.4797 14.1299 15.2202 13.4384C15.9471 12.7605 16.8881 11.4539 16.8881 8.90451C16.8881 8.02581 17.2766 7.2715 17.5648 6.66897C17.5648 6.65641 17.5773 6.63131 17.6024 6.5811C17.7152 6.33004 17.853 6.00367 17.853 5.67729C17.853 5.43879 17.7904 5.16263 17.6274 4.92412C17.3768 4.49733 16.9257 4.34669 16.511 4.34669C15.5461 4.34669 14.8807 5.02454 14.5424 5.71609L14.4296 5.94204C14.2917 5.7412 14.1539 5.5278 14.0411 5.33951C13.6902 4.72442 13.4897 4.31017 13.3143 3.78181C13.1764 3.36757 13.0636 2.89056 12.9885 2.50028C12.7754 1.26897 12.4245 0.867275 11.8469 0.716641C11.4209 0.603666 10.9196 0.691535 10.555 0.930039C10.3055 0.365162 9.87947 0.114105 9.31441 0.114105C8.51238 0.114105 7.78441 0.641324 7.78441 1.53372C7.78441 1.64669 7.79694 1.75967 7.80947 1.89775C7.70922 1.87264 7.59643 1.86009 7.48365 1.86009C6.61896 1.86009 5.97871 2.46263 5.97871 3.2797C5.97871 3.46799 6.00377 3.68139 6.06643 3.93245C5.99124 3.9199 5.91605 3.9199 5.84086 3.9199C5.41479 3.945 5.02631 4.10819 4.74947 4.44711C4.47491 4.77349 4.36213 5.2756 4.57517 5.96715Z" fill="#1F1F1A"/>
<path d="M5.28951 5.74122C5.17672 5.37719 5.18926 5.10103 5.3271 4.92529C5.46495 4.7621 5.65293 4.68678 5.8785 4.67423C6.26698 4.66168 6.41736 4.93784 6.64293 5.65335C6.78077 6.10525 7.05647 6.75914 7.21938 7.12317C7.43242 7.56252 7.73318 8.15251 7.87103 8.35449C7.98381 8.53023 8.08407 8.58044 8.19685 8.58044C8.39736 8.58044 8.54774 8.46747 8.54774 8.26662C8.54774 8.15365 8.43495 7.96536 8.37229 7.85238C8.25951 7.63898 8.02141 7.21219 7.8585 6.84815C7.68305 6.44646 7.48255 5.94435 7.31964 5.49131C7.21938 5.2277 7.1066 4.85111 6.99381 4.47453C6.81837 3.8971 6.73065 3.54562 6.73065 3.28087C6.73065 2.87918 7.03141 2.61557 7.48255 2.61557C7.80837 2.61557 8.02141 2.77875 8.15926 3.36874C8.27204 3.90851 8.47255 4.78835 8.76077 5.47875C8.94875 5.93066 9.22445 6.53433 9.38736 6.8356C9.48761 7.01134 9.60039 7.16197 9.60039 7.22474C9.60039 7.31261 9.43748 7.45069 9.29963 7.63898C9.21191 7.75196 9.17432 7.82727 9.17432 7.91514C9.17432 7.99046 9.22445 8.06578 9.29963 8.1662C9.37482 8.26662 9.45002 8.36705 9.53774 8.36705C9.60039 8.36705 9.63799 8.34194 9.67558 8.29173C10.0641 7.80217 10.4901 7.46324 10.98 7.18594C11.5565 6.85957 12.1466 6.69638 12.6103 6.59596C12.8358 6.54574 12.8985 6.49553 12.8985 6.37C12.8985 6.21937 12.7857 6.1315 12.6353 6.11895C12.5225 6.1064 12.4223 6.11895 12.2469 6.1315C12.1215 6.14405 12.0589 6.08129 11.9837 5.9181C11.7581 5.4411 11.3195 4.63657 11.0563 3.60724C10.9436 3.16789 10.8433 2.70344 10.7806 2.09976C10.7431 1.8236 10.7932 1.72317 10.931 1.59765C11.1065 1.44701 11.4198 1.38425 11.6579 1.44701C11.9461 1.52233 12.0965 1.74828 12.2469 2.62812C12.322 3.04236 12.4474 3.56958 12.5977 4.02263C12.7857 4.60006 13.0238 5.0782 13.3872 5.7184C13.5877 6.06988 13.8384 6.43391 14.1015 6.78653C14.0514 6.93716 13.9637 7.03759 13.6755 7.27609C13.3872 7.51459 13.099 7.76565 12.8358 8.23011C12.6479 8.56903 12.5601 8.94562 12.5601 9.19667C12.5601 9.43518 12.6103 9.48539 12.7606 9.48539C13.0238 9.48539 13.2369 9.43518 13.2494 9.3222C13.312 8.8703 13.3872 8.58159 13.6379 8.24152C13.7882 8.05323 14.0514 7.81472 14.2644 7.62643C14.6655 7.30006 14.8033 7.11176 14.9412 6.64731C15.0038 6.43391 15.079 6.23306 15.1793 6.04477C15.4174 5.60542 15.8434 5.10331 16.5087 5.10331C16.7218 5.10331 16.8972 5.16607 17.01 5.34181C17.0727 5.44224 17.0977 5.58032 17.0977 5.68074C17.0977 5.90669 16.9348 6.22051 16.8596 6.37115C16.5839 6.96113 16.1328 7.86607 16.1328 8.90796C16.1328 11.1812 15.3308 12.3121 14.7031 12.8895C14.089 13.4669 13.1229 13.9702 11.9825 13.9702C11.168 13.9702 10.3272 13.7317 9.63799 13.2798C8.67305 12.6396 8.07039 11.6342 7.45634 10.63C6.96761 9.81405 6.62926 9.17271 6.10179 7.92998C5.80445 7.2099 5.52761 6.50694 5.28951 5.74122Z" fill="#FFE450"/>
<path d="M8.51239 1.53374C8.51239 1.05673 8.951 0.868439 9.31442 0.868439C9.7029 0.868439 9.84074 1.05673 9.941 1.45842C10.0287 1.7848 10.0663 2.08606 10.1039 2.43754C10.154 2.78902 10.3295 3.59354 10.3796 3.79439C10.5676 4.4848 10.9435 5.30187 11.3947 6.28099C11.1315 6.36886 10.7806 6.5195 10.5425 6.64502C10.2418 6.80821 10.1791 6.80821 10.0538 6.56971C9.79062 6.08015 9.60264 5.71611 9.43973 5.28818C9.30188 4.9367 9.16404 4.53501 9.05125 4.06941C8.86328 3.27858 8.83821 3.05263 8.68783 2.68746C8.60011 2.31201 8.51239 1.84756 8.51239 1.53374Z" fill="#FFE450"/>
<path d="M4.02383 9.94185C3.75838 10.1062 2.35142 10.8445 2.03357 10.9621C1.80686 11.0465 1.56079 11.026 1.41611 10.5969C1.23838 10.0662 1.48788 9.94071 1.84332 9.80263C2.15775 9.68052 3.46218 9.20808 3.76522 9.12591C3.97826 9.06886 4.12636 9.14075 4.22889 9.39751C4.34167 9.67938 4.26421 9.79235 4.02383 9.94185Z" fill="#1F1F1A"/>
<path d="M2.86407 6.95085C2.48585 6.96112 0.914833 6.89379 0.555973 6.85841C0.243821 6.8276 0.117365 6.68952 0.151542 6.23648C0.187998 5.75034 0.377112 5.72067 0.683567 5.75034C1.03901 5.78457 2.68521 6.05275 2.94724 6.13377C3.21838 6.21822 3.25597 6.34146 3.22293 6.57883C3.18078 6.88694 3.0418 6.94514 2.86407 6.95085Z" fill="#1F1F1A"/>
<path d="M3.05885 3.7647C2.62594 3.62776 1.34088 2.84834 1.00594 2.64749C0.702901 2.46491 0.664167 2.30058 0.874926 1.90003C1.06176 1.54627 1.2691 1.48465 1.5767 1.64441C1.93328 1.83042 3.19214 2.81182 3.43252 3.00582C3.66493 3.19297 3.63303 3.28997 3.51113 3.53076C3.38923 3.77154 3.27531 3.83317 3.05885 3.7647Z" fill="#1F1F1A"/>
</g>
<defs>
<clipPath id="clip0_15_50">
<rect width="18" height="14.8352" fill="white"/>
</clipPath>
</defs>
</svg>
