<svg width="21" height="17" viewBox="0 0 21 17" fill="none" xmlns="http://www.w3.org/2000/svg">
<g clip-path="url(#clip0_6_565)">
<mask id="mask0_6_565" style="mask-type:luminance" maskUnits="userSpaceOnUse" x="0" y="0" width="21" height="17">
<path d="M21 0H0V16.2676H21V0Z" fill="white"/>
</mask>
<g mask="url(#mask0_6_565)">
<path d="M17.7774 1.44864C16.4389 0.834495 15.0036 0.382019 13.5029 0.122868C13.4756 0.117866 13.4483 0.130365 13.4342 0.155364C13.2496 0.483677 13.0451 0.911988 12.902 1.24864C11.2879 1.00699 9.68204 1.00699 8.10103 1.24864C7.95782 0.904505 7.74592 0.483677 7.5605 0.155364C7.54642 0.131199 7.51912 0.1187 7.49179 0.122868C5.99192 0.381191 4.55662 0.833667 3.21732 1.44864C3.20572 1.45364 3.19579 1.46198 3.18919 1.47281C0.466718 5.54012 -0.279081 9.50747 0.0867826 13.4256C0.0884381 13.4448 0.0991986 13.4631 0.114098 13.4748C1.91031 14.7939 3.65024 15.5947 5.35787 16.1255C5.3852 16.1338 5.41416 16.1238 5.43155 16.1013C5.83549 15.5497 6.19556 14.9681 6.50429 14.3564C6.52251 14.3206 6.50512 14.2781 6.46788 14.2639C5.89674 14.0473 5.3529 13.7831 4.82976 13.4831C4.78838 13.459 4.78507 13.3998 4.82314 13.3714C4.93323 13.2889 5.04334 13.2031 5.14846 13.1164C5.16748 13.1006 5.19398 13.0973 5.21634 13.1073C8.65312 14.6764 12.3739 14.6764 15.7701 13.1073C15.7924 13.0965 15.8189 13.0998 15.8388 13.1156C15.9439 13.2023 16.054 13.2889 16.1649 13.3714C16.203 13.3998 16.2005 13.459 16.1591 13.4831C15.636 13.7889 15.0922 14.0473 14.5202 14.2631C14.483 14.2772 14.4664 14.3206 14.4846 14.3564C14.8 14.9672 15.16 15.5488 15.5565 16.1005C15.5731 16.1238 15.6029 16.1338 15.6302 16.1255C17.3461 15.5947 19.086 14.7939 20.8823 13.4748C20.898 13.4631 20.9079 13.4456 20.9096 13.4264C21.3474 8.89663 20.1762 4.96182 17.8047 1.47363C17.7989 1.46198 17.789 1.45364 17.7774 1.44864ZM7.01752 11.0399C5.98281 11.0399 5.13024 10.0899 5.13024 8.92331C5.13024 7.75669 5.96628 6.80675 7.01752 6.80675C8.07701 6.80675 8.92133 7.76503 8.90477 8.92331C8.90477 10.0899 8.06873 11.0399 7.01752 11.0399ZM13.9954 11.0399C12.9607 11.0399 12.1082 10.0899 12.1082 8.92331C12.1082 7.75669 12.9442 6.80675 13.9954 6.80675C15.0549 6.80675 15.8992 7.76503 15.8827 8.92331C15.8827 10.0899 15.0549 11.0399 13.9954 11.0399Z" fill="#5865F2"/>
</g>
</g>
<defs>
<clipPath id="clip0_6_565">
<rect width="21" height="16.2676" fill="white"/>
</clipPath>
</defs>
</svg>
