<svg width="23" height="20" viewBox="0 0 23 20" fill="none" xmlns="http://www.w3.org/2000/svg">
<g clip-path="url(#clip0_4_538)">
<path d="M18.8502 16.6939H16.0939V12.4199C16.0939 11.4007 16.0756 10.0887 14.6604 10.0887C13.2248 10.0887 13.0051 11.1992 13.0051 12.3457V16.6936H10.2488V7.90454H12.8949V9.10566H12.9319C13.1967 8.65735 13.5794 8.28855 14.0391 8.03853C14.4989 7.78852 15.0185 7.66666 15.5427 7.68592C18.3363 7.68592 18.8514 9.50537 18.8514 11.8724L18.8502 16.6939ZM7.13877 6.70314C6.82242 6.70319 6.51314 6.61036 6.25007 6.43638C5.987 6.2624 5.78195 6.01509 5.66084 5.72571C5.53972 5.43634 5.50798 5.1179 5.56964 4.81067C5.6313 4.50343 5.7836 4.22121 6.00726 3.99967C6.23091 3.77814 6.51589 3.62725 6.82616 3.56608C7.13643 3.50492 7.45804 3.53622 7.75033 3.65604C8.04263 3.77586 8.29248 3.97881 8.46828 4.23923C8.64409 4.49965 8.73796 4.80584 8.73801 5.11908C8.73805 5.32707 8.69671 5.53302 8.61636 5.72519C8.53601 5.91735 8.41824 6.09197 8.26973 6.23906C8.12123 6.38615 7.94491 6.50284 7.75086 6.58247C7.55681 6.6621 7.34883 6.7031 7.13877 6.70314ZM8.51693 16.6939H5.75775V7.90454H8.51693V16.6939ZM20.2244 1.00116H4.3727C4.01292 0.997143 3.66622 1.13472 3.40882 1.38366C3.15143 1.63261 3.00439 1.97255 3 2.32879V18.0895C3.00424 18.4459 3.15119 18.7861 3.40858 19.0353C3.66596 19.2845 4.01274 19.4223 4.3727 19.4185H20.2244C20.5851 19.423 20.9328 19.2855 21.1912 19.0363C21.4496 18.7871 21.5975 18.4466 21.6025 18.0895V2.32765C21.5974 1.97071 21.4494 1.63038 21.1909 1.38144C20.9325 1.1325 20.5849 0.995318 20.2244 1.00003" fill="#0A66C2"/>
<path d="M12.2563 9C11.9209 9.00319 11.6005 9.13775 11.3651 9.37424C11.1297 9.61073 10.9984 9.92991 11 10.262C11.0016 10.594 11.136 10.9119 11.3737 11.1462C11.6114 11.3804 11.9331 11.5119 12.2685 11.5119C12.6039 11.5119 12.9256 11.3804 13.1633 11.1462C13.401 10.9119 13.5353 10.594 13.537 10.262C13.5386 9.92991 13.4073 9.61073 13.1719 9.37424C12.9365 9.13775 12.616 9.00319 12.2807 9H12.2563ZM12.2563 11.3681C12.0363 11.3717 11.8202 11.3107 11.6353 11.1927C11.4504 11.0747 11.3049 10.9051 11.2174 10.7053C11.1298 10.5055 11.1041 10.2844 11.1434 10.0701C11.1827 9.85578 11.2854 9.65782 11.4383 9.50125C11.5912 9.34469 11.7876 9.23654 12.0026 9.19049C12.2177 9.14445 12.4417 9.16257 12.6463 9.24257C12.8509 9.32256 13.0269 9.46084 13.1522 9.63991C13.2774 9.81898 13.3462 10.0308 13.3499 10.2486C13.3499 10.2548 13.3499 10.2608 13.3499 10.2671C13.3561 10.5528 13.2474 10.8292 13.0477 11.0356C12.8481 11.242 12.5738 11.3614 12.2853 11.3676H12.2566" fill="#0A66C2"/>
</g>
<defs>
<clipPath id="clip0_4_538">
<rect width="23" height="19.4156" fill="white"/>
</clipPath>
</defs>
</svg>
