<svg width="26" height="19" viewBox="0 0 26 19" fill="none" xmlns="http://www.w3.org/2000/svg">
<path d="M14.0593 9.17092C14.0593 11.7757 11.9622 13.8872 9.37532 13.8872C6.78848 13.8872 4.69116 11.7757 4.69116 9.17092C4.69116 6.56619 6.78832 4.45448 9.37532 4.45448C11.9623 4.45448 14.0593 6.56619 14.0593 9.17092Z" fill="black"/>
<path d="M19.1978 9.17092C19.1978 11.6227 18.1493 13.6111 16.8558 13.6111C15.5623 13.6111 14.5137 11.6227 14.5137 9.17092C14.5137 6.71912 15.5621 4.73076 16.8556 4.73076C18.1491 4.73076 19.1977 6.71849 19.1977 9.17092" fill="black"/>
<path d="M21.2996 9.17092C21.2996 11.3671 20.9309 13.1486 20.4759 13.1486C20.0209 13.1486 19.6523 11.3676 19.6523 9.17092C19.6523 6.97424 20.0211 5.19324 20.4759 5.19324C20.9307 5.19324 21.2996 6.97408 21.2996 9.17092Z" fill="black"/>
</svg>
