<svg width="18" height="18" viewBox="0 0 18 18" fill="none" xmlns="http://www.w3.org/2000/svg">
<g clip-path="url(#clip0_4_520)">
<path d="M9 0C4.02963 0 0 4.02963 0 9C0 12.8148 2.37037 16.0741 5.71852 17.3852C5.63704 16.6741 5.57037 15.5778 5.74815 14.8C5.91111 14.0963 6.8 10.3259 6.8 10.3259C6.8 10.3259 6.53333 9.78519 6.53333 8.99259C6.53333 7.74074 7.25926 6.80741 8.16296 6.80741C8.93333 6.80741 9.3037 7.38519 9.3037 8.07407C9.3037 8.84444 8.81481 10 8.55556 11.0741C8.34074 11.9704 9.00741 12.7037 9.88889 12.7037C11.4889 12.7037 12.7185 11.0148 12.7185 8.58519C12.7185 6.42963 11.1704 4.92593 8.95556 4.92593C6.39259 4.92593 4.88889 6.84444 4.88889 8.82963C4.88889 9.6 5.18519 10.4296 5.55556 10.8815C5.62963 10.9704 5.63704 11.0519 5.61482 11.1407C5.54815 11.4222 5.39259 12.037 5.36296 12.163C5.32593 12.3259 5.22963 12.363 5.05926 12.2815C3.93333 11.7556 3.22963 10.1185 3.22963 8.79259C3.22963 5.95556 5.28889 3.34815 9.17778 3.34815C12.2963 3.34815 14.7259 5.57037 14.7259 8.54815C14.7259 11.6519 12.7704 14.1481 10.0593 14.1481C9.14815 14.1481 8.28889 13.6741 8 13.1111C8 13.1111 7.54815 14.8296 7.43704 15.2519C7.23704 16.037 6.68889 17.0148 6.31852 17.6148C7.16296 17.8741 8.05185 18.0148 8.98519 18.0148C13.9556 18.0148 17.9852 13.9852 17.9852 9.01481C18 4.02963 13.9704 0 9 0Z" fill="#E60023"/>
</g>
<defs>
<clipPath id="clip0_4_520">
<rect width="18" height="18" fill="white"/>
</clipPath>
</defs>
</svg>
