<svg width="18" height="18" viewBox="0 0 18 18" fill="none" xmlns="http://www.w3.org/2000/svg">
<g clip-path="url(#clip0_3_471)">
<path d="M9 18C13.9706 18 18 13.9706 18 9C18 4.02944 13.9706 0 9 0C4.02944 0 0 4.02944 0 9C0 13.9706 4.02944 18 9 18Z" fill="#FF4500"/>
<path d="M15 9C15 8.27368 14.4105 7.68421 13.6842 7.68421C13.3263 7.68421 13.0105 7.82105 12.779 8.05263C11.8842 7.41052 10.6421 6.98947 9.27369 6.93684L9.87369 4.12631L11.8211 4.53684C11.8421 5.03158 12.2526 5.43158 12.7579 5.43158C13.2737 5.43158 13.6947 5.01052 13.6947 4.49473C13.6947 3.97894 13.2737 3.55789 12.7579 3.55789C12.3895 3.55789 12.0737 3.76842 11.9263 4.08421L9.74737 3.62105C9.68421 3.61052 9.62106 3.62105 9.56843 3.65263C9.51579 3.68421 9.48422 3.73684 9.46316 3.8L8.8 6.93684C7.4 6.97895 6.14737 7.38947 5.24211 8.05263C5.01053 7.83158 4.68422 7.68421 4.33685 7.68421C3.61053 7.68421 3.02106 8.27368 3.02106 9C3.02106 9.53684 3.33685 9.98947 3.8 10.2C3.77895 10.3263 3.76843 10.4632 3.76843 10.6C3.76843 12.621 6.11579 14.2526 9.02106 14.2526C11.9263 14.2526 14.2737 12.621 14.2737 10.6C14.2737 10.4632 14.2632 10.3368 14.2421 10.2105C14.6737 10 15 9.53684 15 9ZM6 9.93684C6 9.42105 6.42106 9 6.93685 9C7.45264 9 7.87369 9.42105 7.87369 9.93684C7.87369 10.4526 7.45264 10.8737 6.93685 10.8737C6.42106 10.8737 6 10.4526 6 9.93684ZM11.2316 12.4105C10.5895 13.0526 9.36843 13.0947 9.01053 13.0947C8.65264 13.0947 7.42106 13.0421 6.78948 12.4105C6.69474 12.3158 6.69474 12.1579 6.78948 12.0632C6.88421 11.9684 7.04211 11.9684 7.13685 12.0632C7.53685 12.4632 8.4 12.6105 9.02106 12.6105C9.64211 12.6105 10.4947 12.4632 10.9053 12.0632C11 11.9684 11.1579 11.9684 11.2526 12.0632C11.3263 12.1684 11.3263 12.3158 11.2316 12.4105ZM11.0632 10.8737C10.5474 10.8737 10.1263 10.4526 10.1263 9.93684C10.1263 9.42105 10.5474 9 11.0632 9C11.579 9 12 9.42105 12 9.93684C12 10.4526 11.579 10.8737 11.0632 10.8737Z" fill="white"/>
</g>
<defs>
<clipPath id="clip0_3_471">
<rect width="18" height="18" fill="white"/>
</clipPath>
</defs>
</svg>
