<svg width="32" height="32" viewBox="0 0 32 32" fill="none" xmlns="http://www.w3.org/2000/svg">
<path d="M11.2534 18.16C11.2534 19.1067 10.48 19.88 9.53335 19.88C8.58669 19.88 7.81335 19.1067 7.81335 18.16C7.81335 17.2133 8.58669 16.44 9.53335 16.44H11.2534V18.16Z" fill="#E01E5A"/>
<path d="M12.12 18.16C12.12 17.2133 12.8933 16.44 13.84 16.44C14.7867 16.44 15.56 17.2133 15.56 18.16V22.4667C15.56 23.4133 14.7867 24.1867 13.84 24.1867C12.8933 24.1867 12.12 23.4133 12.12 22.4667V18.16Z" fill="#E01E5A"/>
<path d="M13.84 11.2533C12.8933 11.2533 12.12 10.48 12.12 9.53332C12.12 8.58666 12.8933 7.81332 13.84 7.81332C14.7867 7.81332 15.56 8.58666 15.56 9.53332V11.2533H13.84Z" fill="#36C5F0"/>
<path d="M13.84 12.12C14.7867 12.12 15.56 12.8933 15.56 13.84C15.56 14.7867 14.7867 15.56 13.84 15.56H9.53335C8.58669 15.56 7.81335 14.7867 7.81335 13.84C7.81335 12.8933 8.58669 12.12 9.53335 12.12H13.84Z" fill="#36C5F0"/>
<path d="M20.7466 13.84C20.7466 12.8933 21.52 12.12 22.4666 12.12C23.4133 12.12 24.1866 12.8933 24.1866 13.84C24.1866 14.7867 23.4133 15.56 22.4666 15.56H20.7466V13.84Z" fill="#2EB67D"/>
<path d="M19.88 13.84C19.88 14.7867 19.1067 15.56 18.16 15.56C17.2133 15.56 16.44 14.7867 16.44 13.84V9.53332C16.44 8.58666 17.2133 7.81332 18.16 7.81332C19.1067 7.81332 19.88 8.58666 19.88 9.53332V13.84Z" fill="#2EB67D"/>
<path d="M18.16 20.7467C19.1067 20.7467 19.88 21.52 19.88 22.4667C19.88 23.4133 19.1067 24.1867 18.16 24.1867C17.2133 24.1867 16.44 23.4133 16.44 22.4667V20.7467H18.16Z" fill="#ECB22E"/>
<path d="M18.16 19.88C17.2133 19.88 16.44 19.1067 16.44 18.16C16.44 17.2133 17.2133 16.44 18.16 16.44H22.4667C23.4133 16.44 24.1867 17.2133 24.1867 18.16C24.1867 19.1067 23.4133 19.88 22.4667 19.88H18.16Z" fill="#ECB22E"/>
</svg>
