<svg width="18" height="18" viewBox="0 0 18 18" fill="none" xmlns="http://www.w3.org/2000/svg">
<g clip-path="url(#clip0_4_482)">
<path d="M15.1319 -1.90735e-06C16.7156 -1.90735e-06 18 1.28409 18 2.86835V15.1319C18 16.7156 16.7156 18 15.1319 18H2.86835C1.28436 18 0 16.7156 0 15.1319V2.86835C0 1.28409 1.28436 -1.90735e-06 2.86835 -1.90735e-06H15.1319Z" fill="#FFFC00"/>
<path d="M15.0687 12.0856C15.0157 11.91 14.7618 11.7863 14.7618 11.7863C14.7378 11.7736 14.7163 11.7623 14.6987 11.7534C14.2755 11.5488 13.9004 11.3025 13.5847 11.0234C13.3308 10.7986 13.1136 10.551 12.9392 10.2883C12.7258 9.96748 12.626 9.69972 12.5831 9.55447C12.5591 9.45974 12.5629 9.42185 12.5831 9.37259C12.5995 9.33091 12.6488 9.29176 12.6715 9.27281C12.8142 9.17177 13.0441 9.02273 13.1855 8.93179C13.3081 8.85222 13.4129 8.78401 13.4748 8.74107C13.6731 8.60214 13.8095 8.46068 13.8891 8.30785C13.9926 8.11081 14.0053 7.89357 13.9244 7.68012C13.8158 7.39214 13.5468 7.22037 13.2045 7.22037C13.1287 7.22037 13.0504 7.22921 12.9721 7.24563C12.7763 7.28857 12.5907 7.35804 12.4353 7.41867C12.4239 7.42372 12.4113 7.41488 12.4126 7.40225C12.429 7.01702 12.4479 6.49917 12.405 6.00785C12.3671 5.56326 12.2749 5.18814 12.1259 4.86101C11.9755 4.53262 11.7798 4.29011 11.627 4.11455C11.4817 3.94783 11.2253 3.70154 10.8388 3.48051C10.2957 3.1698 9.67682 3.01192 8.99983 3.01192C8.3241 3.01192 7.70647 3.1698 7.1621 3.48051C6.75288 3.71417 6.49143 3.97814 6.3727 4.11455C6.21987 4.29011 6.0241 4.53262 5.8738 4.86101C5.7235 5.18814 5.63256 5.562 5.59467 6.00785C5.55172 6.5017 5.56941 6.97787 5.58709 7.40225C5.58709 7.41488 5.57572 7.42372 5.56309 7.41867C5.40774 7.35804 5.22207 7.28857 5.0263 7.24563C4.94925 7.22921 4.87094 7.22037 4.7939 7.22037C4.45288 7.22037 4.18385 7.39214 4.07397 7.68012C3.99313 7.89357 4.00576 8.11081 4.10933 8.30785C4.19017 8.46068 4.32531 8.60214 4.52361 8.74107C4.58423 8.78401 4.69033 8.85222 4.81284 8.93179C4.95052 9.02147 5.17407 9.16672 5.31806 9.2665C5.33574 9.27913 5.39637 9.3246 5.41531 9.37259C5.43552 9.42311 5.43931 9.461 5.41279 9.56205C5.36858 9.70856 5.2688 9.9738 5.05914 10.2883C4.88484 10.5523 4.66759 10.7986 4.41372 11.0234C4.09796 11.3025 3.72284 11.5488 3.29972 11.7534C3.27951 11.7635 3.25551 11.7749 3.23025 11.7901C3.23025 11.7901 2.97765 11.9189 2.92965 12.0856C2.85892 12.3319 3.04711 12.563 3.23783 12.6868C3.55107 12.8889 3.9325 12.9975 4.15354 13.0569C4.21543 13.0733 4.271 13.0885 4.32152 13.1036C4.3531 13.1137 4.43267 13.144 4.46677 13.1882C4.50971 13.2438 4.51477 13.312 4.52992 13.3891C4.55392 13.5192 4.60823 13.6796 4.76864 13.7907C4.94546 13.912 5.16902 13.9208 5.45321 13.9322C5.75002 13.9435 6.11883 13.9574 6.54195 14.0976C6.73772 14.162 6.91581 14.2719 7.12042 14.3982C7.54985 14.6622 8.08412 14.9906 8.99604 14.9906C9.90922 14.9906 10.4473 14.6609 10.8792 14.3957C11.0838 14.2707 11.2594 14.162 11.4514 14.0989C11.8745 13.9587 12.2433 13.9448 12.5401 13.9334C12.8243 13.9221 13.0479 13.9145 13.2247 13.792C13.3965 13.6732 13.4457 13.4964 13.4685 13.3638C13.4811 13.2981 13.4887 13.2388 13.5266 13.1908C13.5594 13.1491 13.6327 13.12 13.6668 13.1087C13.7185 13.0922 13.7766 13.0771 13.8411 13.0594C14.0621 13 14.34 12.9306 14.6772 12.7399C15.0839 12.5087 15.1117 12.2258 15.0687 12.0856Z" fill="white"/>
<path d="M15.4199 11.9492C15.3302 11.7042 15.1585 11.5741 14.9639 11.4655C14.9273 11.444 14.8932 11.4263 14.8654 11.4137C14.8073 11.3834 14.748 11.3543 14.6886 11.324C14.0811 11.0019 13.6062 10.5952 13.2778 10.114C13.1666 9.95107 13.0896 9.80456 13.0353 9.68457C13.0075 9.60373 13.0088 9.55826 13.029 9.51658C13.0441 9.48501 13.0845 9.45217 13.1073 9.43575C13.2121 9.36628 13.3195 9.29681 13.3927 9.25008C13.5228 9.16546 13.6264 9.09852 13.6921 9.05305C13.9421 8.87875 14.1164 8.69308 14.2251 8.48594C14.3792 8.19418 14.3981 7.86074 14.2794 7.5475C14.1152 7.11302 13.7034 6.84273 13.2058 6.84273C13.1022 6.84273 12.9974 6.85409 12.8938 6.87683C12.866 6.88314 12.8395 6.88946 12.813 6.89577C12.818 6.60022 12.8105 6.28446 12.7839 5.97628C12.6905 4.89007 12.3103 4.32043 11.9137 3.867C11.7482 3.67755 11.4603 3.40094 11.0283 3.15338C10.4258 2.80731 9.7438 2.63301 8.99987 2.63301C8.25846 2.63301 7.57642 2.80731 6.97395 3.15212C6.53947 3.39968 6.25149 3.67755 6.0873 3.86574C5.6907 4.31917 5.31053 4.8888 5.21706 5.97502C5.19054 6.2832 5.18422 6.59896 5.18801 6.89451C5.16149 6.8882 5.1337 6.88188 5.10718 6.87557C5.00361 6.85283 4.89751 6.84146 4.79521 6.84146C4.29757 6.84146 3.88582 7.11175 3.72162 7.54624C3.60289 7.85947 3.62184 8.19292 3.77593 8.48468C3.88455 8.69182 4.06012 8.87749 4.30894 9.05179C4.37588 9.09852 4.47818 9.16546 4.60828 9.24882C4.67901 9.29429 4.78131 9.36123 4.88236 9.42817C4.89751 9.43828 4.95182 9.47869 4.97077 9.51658C4.99224 9.55953 4.99224 9.60626 4.96066 9.69215C4.90762 9.80961 4.83057 9.9536 4.72195 10.1127C4.39987 10.5839 3.93886 10.983 3.35155 11.3013C3.03958 11.4667 2.71624 11.5766 2.57983 11.9479C2.47626 12.2283 2.54447 12.5479 2.80592 12.8169C2.8918 12.9091 3.00042 12.9912 3.13683 13.067C3.45765 13.2438 3.73046 13.331 3.94518 13.3903C3.98307 13.4017 4.07022 13.4295 4.10811 13.4636C4.2041 13.5469 4.19021 13.6733 4.31778 13.8577C4.39482 13.9726 4.48323 14.0509 4.55649 14.1014C4.82299 14.2858 5.1236 14.2972 5.44188 14.3098C5.72859 14.3212 6.05446 14.3338 6.42579 14.4563C6.57988 14.5069 6.74029 14.6054 6.92469 14.7191C7.36928 14.9931 7.97933 15.367 8.99861 15.367C10.0191 15.367 10.6317 14.9906 11.0801 14.7165C11.2645 14.6041 11.4236 14.5056 11.5727 14.4563C11.944 14.3338 12.2699 14.3212 12.5566 14.3098C12.8749 14.2972 13.1742 14.2858 13.442 14.1014C13.5253 14.0433 13.6314 13.9486 13.7148 13.8046C13.8057 13.6493 13.8045 13.5394 13.8904 13.4649C13.9257 13.4345 14.0028 13.408 14.0445 13.3954C14.2604 13.336 14.537 13.2489 14.8642 13.0683C15.0094 12.9887 15.1218 12.9015 15.2115 12.8018C15.2128 12.8005 15.214 12.7992 15.2153 12.798C15.4591 12.5327 15.521 12.2233 15.4199 11.9492ZM14.5143 12.4355C13.9611 12.7411 13.5935 12.7083 13.3081 12.8914C13.0656 13.048 13.2083 13.3853 13.0328 13.5065C12.8155 13.6568 12.1752 13.4964 11.3479 13.7692C10.6658 13.9953 10.2301 14.6433 9.00113 14.6433C7.76967 14.6433 7.34655 13.9979 6.6544 13.7692C5.82711 13.4964 5.18549 13.6568 4.96951 13.5065C4.79394 13.3853 4.93667 13.048 4.69416 12.8914C4.40872 12.707 4.04117 12.7399 3.48796 12.4355C3.13557 12.241 3.33513 12.121 3.45259 12.0641C5.45578 11.0954 5.77406 9.59742 5.78922 9.48501C5.8069 9.35113 5.82585 9.24503 5.67807 9.10736C5.53535 8.97474 4.90004 8.58193 4.72448 8.45942C4.43271 8.25607 4.30515 8.05272 4.39987 7.80264C4.46555 7.6296 4.62722 7.56519 4.79773 7.56519C4.85078 7.56519 4.90509 7.5715 4.95688 7.58287C5.27642 7.65234 5.58713 7.81274 5.76648 7.85569C5.79175 7.862 5.81322 7.86453 5.83216 7.86453C5.92815 7.86453 5.96099 7.81653 5.95468 7.70665C5.93447 7.35678 5.88395 6.67474 5.93952 6.03691C6.0153 5.16036 6.29822 4.72587 6.63419 4.34064C6.79586 4.15624 7.55369 3.35547 9.0024 3.35547C10.4549 3.35547 11.2089 4.15624 11.3706 4.34064C11.7066 4.72461 11.9895 5.15909 12.0653 6.03691C12.1208 6.67474 12.0728 7.35678 12.0501 7.70665C12.0425 7.82158 12.0779 7.86453 12.1726 7.86453C12.1916 7.86453 12.2143 7.862 12.2383 7.85569C12.4177 7.81274 12.7284 7.65234 13.0479 7.58287C13.0997 7.5715 13.154 7.56519 13.2071 7.56519C13.3776 7.56519 13.5392 7.63086 13.6049 7.80264C13.6996 8.05272 13.5708 8.25607 13.2803 8.45942C13.1048 8.58193 12.4694 8.97474 12.3267 9.10736C12.1789 9.24377 12.1979 9.34986 12.2156 9.48501C12.2295 9.59742 12.549 11.0954 14.5522 12.0641C14.6659 12.121 14.8667 12.241 14.5143 12.4355Z" fill="black"/>
</g>
<defs>
<clipPath id="clip0_4_482">
<rect width="18" height="18" fill="white"/>
</clipPath>
</defs>
</svg>
