<svg width="18" height="18" viewBox="0 0 18 18" fill="none" xmlns="http://www.w3.org/2000/svg">
<g clip-path="url(#clip0_4_510)">
<path d="M14.2435 7.99408C11.3862 6.29719 6.67303 6.14116 3.94534 6.96902C3.50729 7.10197 3.04407 6.8546 2.91138 6.41669C2.77861 5.97836 3.02563 5.51548 3.464 5.38231C6.59521 4.43188 11.8004 4.61542 15.0898 6.56806C15.4838 6.80199 15.613 7.31082 15.3795 7.70414C15.1458 8.09811 14.6366 8.22798 14.2435 7.99408ZM14.15 10.5074C13.9495 10.8327 13.5242 10.9348 13.1993 10.735C10.8171 9.2707 7.18467 8.84651 4.36638 9.702C4.00091 9.81244 3.61488 9.60636 3.50386 9.24159C3.39375 8.87611 3.59991 8.4908 3.96473 8.37965C7.18422 7.4027 11.1865 7.87591 13.9226 9.55728C14.2474 9.75737 14.3497 10.1829 14.15 10.5074ZM13.0653 12.9212C12.906 13.1824 12.5659 13.2642 12.3056 13.105C10.224 11.8328 7.60398 11.5455 4.51842 12.2502C4.22108 12.3184 3.92474 12.1321 3.85693 11.8348C3.78883 11.5376 3.97445 11.2412 4.27244 11.1733C7.64905 10.4014 10.5455 10.7336 12.882 12.1613C13.1425 12.3204 13.2245 12.6608 13.0653 12.9212ZM9.00002 0.135693C4.10444 0.135693 0.135681 4.10437 0.135681 8.99986C0.135681 13.8959 4.10444 17.8643 9.00002 17.8643C13.8957 17.8643 17.8643 13.8959 17.8643 8.99986C17.8643 4.10437 13.8957 0.135693 9.00002 0.135693Z" fill="#1ED760"/>
</g>
<defs>
<clipPath id="clip0_4_510">
<rect width="18" height="18" fill="white"/>
</clipPath>
</defs>
</svg>
