<svg width="18" height="18" viewBox="0 0 18 18" fill="none" xmlns="http://www.w3.org/2000/svg">
<g clip-path="url(#clip0_15_14)">
<path d="M9.00701 18.014C13.9815 18.014 18.014 13.9815 18.014 9.00701C18.014 4.03258 13.9815 0 9.00701 0C4.03258 0 0 4.03258 0 9.00701C0 13.9815 4.03258 18.014 9.00701 18.014Z" fill="url(#paint0_linear_15_14)"/>
<path fill-rule="evenodd" clip-rule="evenodd" d="M4.06861 8.90881C6.69215 7.75838 8.44585 7.01481 9.32972 6.65004C11.827 5.61185 12.3461 5.42947 12.6828 5.41544C12.7529 5.41544 12.9213 5.42947 13.0335 5.51364C13.1177 5.58379 13.1458 5.682 13.1598 5.75215C13.1738 5.82229 13.1879 5.97662 13.1738 6.10289C13.0335 7.51988 12.4583 10.9852 12.1497 12.5705C12.0234 13.244 11.7709 13.4684 11.5324 13.4965C11.0133 13.5386 10.6064 13.1458 10.1013 12.8231C9.31569 12.304 8.86674 11.9813 8.09511 11.4762C7.21125 10.887 7.78646 10.5643 8.29153 10.0452C8.4178 9.90491 10.7327 7.8145 10.7748 7.61809C10.7748 7.59003 10.7888 7.50585 10.7327 7.46376C10.6766 7.42167 10.6064 7.4357 10.5503 7.44973C10.4661 7.46376 9.20345 8.30554 6.74827 9.96103C6.3835 10.2136 6.06082 10.3258 5.7662 10.3258C5.44352 10.3258 4.82621 10.1434 4.36324 9.98909C3.80205 9.80671 3.3531 9.7085 3.39519 9.39985C3.42325 9.24552 3.64773 9.07717 4.06861 8.90881Z" fill="white"/>
</g>
<defs>
<linearGradient id="paint0_linear_15_14" x1="0" y1="9.00049" x2="18.001" y2="9.00049" gradientUnits="userSpaceOnUse">
<stop stop-color="#2AABEE"/>
<stop offset="1" stop-color="#229ED9"/>
</linearGradient>
<clipPath id="clip0_15_14">
<rect width="18" height="18" fill="white"/>
</clipPath>
</defs>
</svg>
