<svg width="16" height="18" viewBox="0 0 16 18" fill="none" xmlns="http://www.w3.org/2000/svg">
<g clip-path="url(#clip0_15_40)">
<path d="M6.21447 7.08766V6.38512C5.97254 6.35217 5.72699 6.33185 5.47645 6.33185C2.45688 6.33185 0 8.78034 0 11.79C0 13.6367 0.925579 15.2707 2.33818 16.2586C1.42665 15.2833 0.867588 13.9771 0.867588 12.5422C0.867588 9.57588 3.2547 7.15674 6.21492 7.08766H6.21447Z" fill="#25F4EE"/>
<path d="M6.34362 15.035C7.69098 15.035 8.79008 13.9667 8.83991 12.6362L8.8449 0.752653H11.0232C10.9779 0.50839 10.9529 0.257356 10.9529 0H7.97776L7.97278 11.8835C7.92294 13.2141 6.82385 14.2823 5.47648 14.2823C5.05786 14.2823 4.66326 14.178 4.31622 13.9961C4.77063 14.6241 5.5091 15.035 6.34362 15.035Z" fill="#25F4EE"/>
<path d="M15.0924 4.78592V4.12538C14.2615 4.12538 13.4872 3.87931 12.838 3.45715C13.4161 4.1186 14.2012 4.59584 15.0924 4.78592Z" fill="#25F4EE"/>
<path d="M12.8385 3.45714C12.2051 2.73248 11.8205 1.78659 11.8205 0.752197H11.0236C11.2333 1.88185 11.9061 2.85123 12.8385 3.45714Z" fill="#FE2C55"/>
<path d="M5.47644 9.2973C4.09736 9.2973 2.97516 10.4157 2.97516 11.79C2.97516 12.7472 3.52018 13.5789 4.31618 13.9961C4.01944 13.5861 3.84275 13.0849 3.84275 12.5422C3.84275 11.1679 4.96495 10.0495 6.34403 10.0495C6.60136 10.0495 6.84827 10.0919 7.08205 10.1646V7.13732C6.84012 7.10436 6.59457 7.08405 6.34403 7.08405C6.30054 7.08405 6.25795 7.0863 6.21491 7.08721V9.41199C5.98114 9.33929 5.73423 9.29685 5.47689 9.29685L5.47644 9.2973Z" fill="#FE2C55"/>
<path d="M15.0924 4.78592V7.09038C13.5498 7.09038 12.1199 6.5987 10.9529 5.76387V11.7901C10.9529 14.7998 8.496 17.2478 5.47643 17.2478C4.30938 17.2478 3.2275 16.8812 2.33771 16.2586C3.33804 17.3291 4.76333 18 6.34356 18C9.36359 18 11.82 15.5515 11.82 12.5423V6.51652C12.9871 7.35135 14.4169 7.84303 15.9595 7.84303V4.87757C15.6619 4.87757 15.3719 4.84552 15.0924 4.78592Z" fill="#FE2C55"/>
<path d="M10.9529 11.79V5.76386C12.12 6.59869 13.5498 7.09037 15.0924 7.09037V4.78591C14.2013 4.59583 13.4161 4.11904 12.838 3.45714C11.9057 2.85123 11.2329 1.8823 11.0231 0.752197H8.84486L8.83988 12.6357C8.79004 13.9663 7.69095 15.0345 6.34358 15.0345C5.50906 15.0345 4.77059 14.6237 4.31619 13.9956C3.52018 13.578 2.97516 12.7463 2.97516 11.7896C2.97516 10.4152 4.09736 9.29686 5.47644 9.29686C5.73378 9.29686 5.98069 9.3393 6.21446 9.41199V7.08721C3.25424 7.15629 0.867126 9.57543 0.867126 12.5418C0.867126 13.9767 1.42619 15.2829 2.33772 16.2581C3.22706 16.8803 4.30939 17.2473 5.47644 17.2473C8.49601 17.2473 10.9529 14.7989 10.9529 11.7896V11.79Z" fill="black"/>
</g>
<defs>
<clipPath id="clip0_15_40">
<rect width="15.96" height="18" fill="white"/>
</clipPath>
</defs>
</svg>
