<svg width="22" height="18" viewBox="0 0 22 18" fill="none" xmlns="http://www.w3.org/2000/svg">
<g clip-path="url(#clip0_4_517)">
<path d="M19.6891 4.52559C19.7024 4.71706 19.7024 4.90853 19.7024 5.10177C19.7024 10.9897 15.1959 17.7803 6.9557 17.7803V17.7768C4.52151 17.7803 2.13788 17.0868 0.0886841 15.7791C0.442636 15.8215 0.798362 15.8427 1.15497 15.8435C3.17223 15.8453 5.13183 15.1721 6.71884 13.9324C4.80183 13.8962 3.12078 12.6529 2.53352 10.8379C3.20505 10.9668 3.89699 10.9403 4.5561 10.7612C2.4661 10.3412 0.962474 8.51471 0.962474 6.39353C0.962474 6.37412 0.962474 6.35559 0.962474 6.33706C1.58522 6.68206 2.28247 6.87353 2.9957 6.89471C1.02723 5.58618 0.420458 2.98148 1.60917 0.945005C3.88368 3.72883 7.23957 5.42118 10.8421 5.6003C10.481 4.05265 10.9742 2.43089 12.1381 1.34295C13.9425 -0.344113 16.7803 -0.257643 18.4764 1.53618C19.4797 1.33942 20.4413 0.97324 21.3213 0.454416C20.9869 1.48589 20.287 2.36206 19.352 2.91883C20.24 2.81471 21.1076 2.57824 21.9246 2.21736C21.3231 3.11383 20.5655 3.89471 19.6891 4.52559Z" fill="#1D9BF0"/>
</g>
<defs>
<clipPath id="clip0_4_517">
<rect width="22" height="18" fill="white"/>
</clipPath>
</defs>
</svg>
