<svg width="22" height="16" viewBox="0 0 22 16" fill="none" xmlns="http://www.w3.org/2000/svg">
<g clip-path="url(#clip0_6_576)">
<path d="M21.5402 2.41207C21.2872 1.46259 20.5419 0.714913 19.5952 0.461162C17.8796 0 11 0 11 0C11 0 4.12041 0 2.40474 0.461162C1.4582 0.714913 0.712695 1.46259 0.459716 2.41207C0 4.13293 0 7.7234 0 7.7234C0 7.7234 0 11.3138 0.459716 13.0349C0.712695 13.9842 1.4582 14.7319 2.40474 14.9857C4.12041 15.4468 11 15.4468 11 15.4468C11 15.4468 17.8796 15.4468 19.5952 14.9857C20.5419 14.7319 21.2872 13.9842 21.5402 13.0349C22 11.3138 22 7.7234 22 7.7234C22 7.7234 22 4.13293 21.5402 2.41207Z" fill="#ED1D24"/>
<path d="M8.75 10.9833L14.5 7.72355L8.75 4.46352V10.9833Z" fill="white"/>
</g>
<defs>
<clipPath id="clip0_6_576">
<rect width="22" height="15.4468" fill="white"/>
</clipPath>
</defs>
</svg>
